# Tiled2Unity generated file. Do not modify by hand.
# Wavefront file for 'small_map_mesh_0001.obj'

# Vertices (Count = 576)
v -176 -16 0
v -192 -16 0
v -192 0 0
v -176 0 0
v -160 -16 0
v -176 -16 0
v -176 0 0
v -160 0 0
v -144 -16 0
v -160 -16 0
v -160 0 0
v -144 0 0
v -128 -16 0
v -144 -16 0
v -144 0 0
v -128 0 0
v -112 -16 0
v -128 -16 0
v -128 0 0
v -112 0 0
v -96 -16 0
v -112 -16 0
v -112 0 0
v -96 0 0
v -80 -16 0
v -96 -16 0
v -96 0 0
v -80 0 0
v -64 -16 0
v -80 -16 0
v -80 0 0
v -64 0 0
v -48 -16 0
v -64 -16 0
v -64 0 0
v -48 0 0
v -32 -16 0
v -48 -16 0
v -48 0 0
v -32 0 0
v -16 -16 0
v -32 -16 0
v -32 0 0
v -16 0 0
v 0 -16 0
v -16 -16 0
v -16 0 0
v 0 0 0
v -176 -32 0
v -192 -32 0
v -192 -16 0
v -176 -16 0
v -160 -32 0
v -176 -32 0
v -176 -16 0
v -160 -16 0
v -144 -32 0
v -160 -32 0
v -160 -16 0
v -144 -16 0
v -128 -32 0
v -144 -32 0
v -144 -16 0
v -128 -16 0
v -112 -32 0
v -128 -32 0
v -128 -16 0
v -112 -16 0
v -96 -32 0
v -112 -32 0
v -112 -16 0
v -96 -16 0
v -80 -32 0
v -96 -32 0
v -96 -16 0
v -80 -16 0
v -64 -32 0
v -80 -32 0
v -80 -16 0
v -64 -16 0
v -48 -32 0
v -64 -32 0
v -64 -16 0
v -48 -16 0
v -32 -32 0
v -48 -32 0
v -48 -16 0
v -32 -16 0
v -16 -32 0
v -32 -32 0
v -32 -16 0
v -16 -16 0
v 0 -32 0
v -16 -32 0
v -16 -16 0
v 0 -16 0
v -176 -48 0
v -192 -48 0
v -192 -32 0
v -176 -32 0
v -160 -48 0
v -176 -48 0
v -176 -32 0
v -160 -32 0
v -144 -48 0
v -160 -48 0
v -160 -32 0
v -144 -32 0
v -128 -48 0
v -144 -48 0
v -144 -32 0
v -128 -32 0
v -112 -48 0
v -128 -48 0
v -128 -32 0
v -112 -32 0
v -96 -48 0
v -112 -48 0
v -112 -32 0
v -96 -32 0
v -80 -48 0
v -96 -48 0
v -96 -32 0
v -80 -32 0
v -64 -48 0
v -80 -48 0
v -80 -32 0
v -64 -32 0
v -48 -48 0
v -64 -48 0
v -64 -32 0
v -48 -32 0
v -32 -48 0
v -48 -48 0
v -48 -32 0
v -32 -32 0
v -16 -48 0
v -32 -48 0
v -32 -32 0
v -16 -32 0
v 0 -48 0
v -16 -48 0
v -16 -32 0
v 0 -32 0
v -176 -64 0
v -192 -64 0
v -192 -48 0
v -176 -48 0
v -160 -64 0
v -176 -64 0
v -176 -48 0
v -160 -48 0
v -144 -64 0
v -160 -64 0
v -160 -48 0
v -144 -48 0
v -128 -64 0
v -144 -64 0
v -144 -48 0
v -128 -48 0
v -112 -64 0
v -128 -64 0
v -128 -48 0
v -112 -48 0
v -96 -64 0
v -112 -64 0
v -112 -48 0
v -96 -48 0
v -80 -64 0
v -96 -64 0
v -96 -48 0
v -80 -48 0
v -64 -64 0
v -80 -64 0
v -80 -48 0
v -64 -48 0
v -48 -64 0
v -64 -64 0
v -64 -48 0
v -48 -48 0
v -32 -64 0
v -48 -64 0
v -48 -48 0
v -32 -48 0
v -16 -64 0
v -32 -64 0
v -32 -48 0
v -16 -48 0
v 0 -64 0
v -16 -64 0
v -16 -48 0
v 0 -48 0
v -176 -80 0
v -192 -80 0
v -192 -64 0
v -176 -64 0
v -160 -80 0
v -176 -80 0
v -176 -64 0
v -160 -64 0
v -144 -80 0
v -160 -80 0
v -160 -64 0
v -144 -64 0
v -128 -80 0
v -144 -80 0
v -144 -64 0
v -128 -64 0
v -112 -80 0
v -128 -80 0
v -128 -64 0
v -112 -64 0
v -96 -80 0
v -112 -80 0
v -112 -64 0
v -96 -64 0
v -80 -80 0
v -96 -80 0
v -96 -64 0
v -80 -64 0
v -64 -80 0
v -80 -80 0
v -80 -64 0
v -64 -64 0
v -48 -80 0
v -64 -80 0
v -64 -64 0
v -48 -64 0
v -32 -80 0
v -48 -80 0
v -48 -64 0
v -32 -64 0
v -16 -80 0
v -32 -80 0
v -32 -64 0
v -16 -64 0
v 0 -80 0
v -16 -80 0
v -16 -64 0
v 0 -64 0
v -176 -96 0
v -192 -96 0
v -192 -80 0
v -176 -80 0
v -160 -96 0
v -176 -96 0
v -176 -80 0
v -160 -80 0
v -144 -96 0
v -160 -96 0
v -160 -80 0
v -144 -80 0
v -128 -96 0
v -144 -96 0
v -144 -80 0
v -128 -80 0
v -112 -96 0
v -128 -96 0
v -128 -80 0
v -112 -80 0
v -96 -96 0
v -112 -96 0
v -112 -80 0
v -96 -80 0
v -80 -96 0
v -96 -96 0
v -96 -80 0
v -80 -80 0
v -64 -96 0
v -80 -96 0
v -80 -80 0
v -64 -80 0
v -48 -96 0
v -64 -96 0
v -64 -80 0
v -48 -80 0
v -32 -96 0
v -48 -96 0
v -48 -80 0
v -32 -80 0
v -16 -96 0
v -32 -96 0
v -32 -80 0
v -16 -80 0
v 0 -96 0
v -16 -96 0
v -16 -80 0
v 0 -80 0
v -176 -112 0
v -192 -112 0
v -192 -96 0
v -176 -96 0
v -160 -112 0
v -176 -112 0
v -176 -96 0
v -160 -96 0
v -144 -112 0
v -160 -112 0
v -160 -96 0
v -144 -96 0
v -128 -112 0
v -144 -112 0
v -144 -96 0
v -128 -96 0
v -112 -112 0
v -128 -112 0
v -128 -96 0
v -112 -96 0
v -96 -112 0
v -112 -112 0
v -112 -96 0
v -96 -96 0
v -80 -112 0
v -96 -112 0
v -96 -96 0
v -80 -96 0
v -64 -112 0
v -80 -112 0
v -80 -96 0
v -64 -96 0
v -48 -112 0
v -64 -112 0
v -64 -96 0
v -48 -96 0
v -32 -112 0
v -48 -112 0
v -48 -96 0
v -32 -96 0
v -16 -112 0
v -32 -112 0
v -32 -96 0
v -16 -96 0
v 0 -112 0
v -16 -112 0
v -16 -96 0
v 0 -96 0
v -176 -128 0
v -192 -128 0
v -192 -112 0
v -176 -112 0
v -160 -128 0
v -176 -128 0
v -176 -112 0
v -160 -112 0
v -144 -128 0
v -160 -128 0
v -160 -112 0
v -144 -112 0
v -128 -128 0
v -144 -128 0
v -144 -112 0
v -128 -112 0
v -112 -128 0
v -128 -128 0
v -128 -112 0
v -112 -112 0
v -96 -128 0
v -112 -128 0
v -112 -112 0
v -96 -112 0
v -80 -128 0
v -96 -128 0
v -96 -112 0
v -80 -112 0
v -64 -128 0
v -80 -128 0
v -80 -112 0
v -64 -112 0
v -48 -128 0
v -64 -128 0
v -64 -112 0
v -48 -112 0
v -32 -128 0
v -48 -128 0
v -48 -112 0
v -32 -112 0
v -16 -128 0
v -32 -128 0
v -32 -112 0
v -16 -112 0
v 0 -128 0
v -16 -128 0
v -16 -112 0
v 0 -112 0
v -176 -144 0
v -192 -144 0
v -192 -128 0
v -176 -128 0
v -160 -144 0
v -176 -144 0
v -176 -128 0
v -160 -128 0
v -144 -144 0
v -160 -144 0
v -160 -128 0
v -144 -128 0
v -128 -144 0
v -144 -144 0
v -144 -128 0
v -128 -128 0
v -112 -144 0
v -128 -144 0
v -128 -128 0
v -112 -128 0
v -96 -144 0
v -112 -144 0
v -112 -128 0
v -96 -128 0
v -80 -144 0
v -96 -144 0
v -96 -128 0
v -80 -128 0
v -64 -144 0
v -80 -144 0
v -80 -128 0
v -64 -128 0
v -48 -144 0
v -64 -144 0
v -64 -128 0
v -48 -128 0
v -32 -144 0
v -48 -144 0
v -48 -128 0
v -32 -128 0
v -16 -144 0
v -32 -144 0
v -32 -128 0
v -16 -128 0
v 0 -144 0
v -16 -144 0
v -16 -128 0
v 0 -128 0
v -176 -160 0
v -192 -160 0
v -192 -144 0
v -176 -144 0
v -160 -160 0
v -176 -160 0
v -176 -144 0
v -160 -144 0
v -144 -160 0
v -160 -160 0
v -160 -144 0
v -144 -144 0
v -128 -160 0
v -144 -160 0
v -144 -144 0
v -128 -144 0
v -112 -160 0
v -128 -160 0
v -128 -144 0
v -112 -144 0
v -96 -160 0
v -112 -160 0
v -112 -144 0
v -96 -144 0
v -80 -160 0
v -96 -160 0
v -96 -144 0
v -80 -144 0
v -64 -160 0
v -80 -160 0
v -80 -144 0
v -64 -144 0
v -48 -160 0
v -64 -160 0
v -64 -144 0
v -48 -144 0
v -32 -160 0
v -48 -160 0
v -48 -144 0
v -32 -144 0
v -16 -160 0
v -32 -160 0
v -32 -144 0
v -16 -144 0
v 0 -160 0
v -16 -160 0
v -16 -144 0
v 0 -144 0
v -176 -176 0
v -192 -176 0
v -192 -160 0
v -176 -160 0
v -160 -176 0
v -176 -176 0
v -176 -160 0
v -160 -160 0
v -144 -176 0
v -160 -176 0
v -160 -160 0
v -144 -160 0
v -128 -176 0
v -144 -176 0
v -144 -160 0
v -128 -160 0
v -112 -176 0
v -128 -176 0
v -128 -160 0
v -112 -160 0
v -96 -176 0
v -112 -176 0
v -112 -160 0
v -96 -160 0
v -80 -176 0
v -96 -176 0
v -96 -160 0
v -80 -160 0
v -64 -176 0
v -80 -176 0
v -80 -160 0
v -64 -160 0
v -48 -176 0
v -64 -176 0
v -64 -160 0
v -48 -160 0
v -32 -176 0
v -48 -176 0
v -48 -160 0
v -32 -160 0
v -16 -176 0
v -32 -176 0
v -32 -160 0
v -16 -160 0
v 0 -176 0
v -16 -176 0
v -16 -160 0
v 0 -160 0
v -176 -192 0
v -192 -192 0
v -192 -176 0
v -176 -176 0
v -160 -192 0
v -176 -192 0
v -176 -176 0
v -160 -176 0
v -144 -192 0
v -160 -192 0
v -160 -176 0
v -144 -176 0
v -128 -192 0
v -144 -192 0
v -144 -176 0
v -128 -176 0
v -112 -192 0
v -128 -192 0
v -128 -176 0
v -112 -176 0
v -96 -192 0
v -112 -192 0
v -112 -176 0
v -96 -176 0
v -80 -192 0
v -96 -192 0
v -96 -176 0
v -80 -176 0
v -64 -192 0
v -80 -192 0
v -80 -176 0
v -64 -176 0
v -48 -192 0
v -64 -192 0
v -64 -176 0
v -48 -176 0
v -32 -192 0
v -48 -192 0
v -48 -176 0
v -32 -176 0
v -16 -192 0
v -32 -192 0
v -32 -176 0
v -16 -176 0
v 0 -192 0
v -16 -192 0
v -16 -176 0
v 0 -176 0

# Texture cooridinates (Count = 8)
vt 0.08780992 0.9372624
vt 0.1043388 0.9372624
vt 0.1043388 0.9676806
vt 0.08780992 0.9676806
vt 0.08780992 0.9695817
vt 0.1043388 0.9695817
vt 0.1043388 1
vt 0.08780992 1

# Normal
vn 0 0 -1

# Mesh description
g small_map_mesh_0001

# Faces
f 1/1/1 2/2/1 3/3/1 4/4/1
f 5/5/1 6/6/1 7/7/1 8/8/1
f 9/5/1 10/6/1 11/7/1 12/8/1
f 13/5/1 14/6/1 15/7/1 16/8/1
f 17/1/1 18/2/1 19/3/1 20/4/1
f 21/1/1 22/2/1 23/3/1 24/4/1
f 25/1/1 26/2/1 27/3/1 28/4/1
f 29/1/1 30/2/1 31/3/1 32/4/1
f 33/5/1 34/6/1 35/7/1 36/8/1
f 37/1/1 38/2/1 39/3/1 40/4/1
f 41/5/1 42/6/1 43/7/1 44/8/1
f 45/5/1 46/6/1 47/7/1 48/8/1
f 49/1/1 50/2/1 51/3/1 52/4/1
f 53/5/1 54/6/1 55/7/1 56/8/1
f 57/5/1 58/6/1 59/7/1 60/8/1
f 61/5/1 62/6/1 63/7/1 64/8/1
f 65/5/1 66/6/1 67/7/1 68/8/1
f 69/1/1 70/2/1 71/3/1 72/4/1
f 73/5/1 74/6/1 75/7/1 76/8/1
f 77/5/1 78/6/1 79/7/1 80/8/1
f 81/1/1 82/2/1 83/3/1 84/4/1
f 85/1/1 86/2/1 87/3/1 88/4/1
f 89/1/1 90/2/1 91/3/1 92/4/1
f 93/1/1 94/2/1 95/3/1 96/4/1
f 97/5/1 98/6/1 99/7/1 100/8/1
f 101/5/1 102/6/1 103/7/1 104/8/1
f 105/1/1 106/2/1 107/3/1 108/4/1
f 109/5/1 110/6/1 111/7/1 112/8/1
f 113/5/1 114/6/1 115/7/1 116/8/1
f 117/5/1 118/6/1 119/7/1 120/8/1
f 121/1/1 122/2/1 123/3/1 124/4/1
f 125/5/1 126/6/1 127/7/1 128/8/1
f 129/5/1 130/6/1 131/7/1 132/8/1
f 133/5/1 134/6/1 135/7/1 136/8/1
f 137/1/1 138/2/1 139/3/1 140/4/1
f 141/1/1 142/2/1 143/3/1 144/4/1
f 145/5/1 146/6/1 147/7/1 148/8/1
f 149/1/1 150/2/1 151/3/1 152/4/1
f 153/5/1 154/6/1 155/7/1 156/8/1
f 157/1/1 158/2/1 159/3/1 160/4/1
f 161/5/1 162/6/1 163/7/1 164/8/1
f 165/5/1 166/6/1 167/7/1 168/8/1
f 169/1/1 170/2/1 171/3/1 172/4/1
f 173/1/1 174/2/1 175/3/1 176/4/1
f 177/1/1 178/2/1 179/3/1 180/4/1
f 181/5/1 182/6/1 183/7/1 184/8/1
f 185/5/1 186/6/1 187/7/1 188/8/1
f 189/5/1 190/6/1 191/7/1 192/8/1
f 193/5/1 194/6/1 195/7/1 196/8/1
f 197/5/1 198/6/1 199/7/1 200/8/1
f 201/5/1 202/6/1 203/7/1 204/8/1
f 205/1/1 206/2/1 207/3/1 208/4/1
f 209/1/1 210/2/1 211/3/1 212/4/1
f 213/1/1 214/2/1 215/3/1 216/4/1
f 217/5/1 218/6/1 219/7/1 220/8/1
f 221/1/1 222/2/1 223/3/1 224/4/1
f 225/5/1 226/6/1 227/7/1 228/8/1
f 229/5/1 230/6/1 231/7/1 232/8/1
f 233/5/1 234/6/1 235/7/1 236/8/1
f 237/5/1 238/6/1 239/7/1 240/8/1
f 241/1/1 242/2/1 243/3/1 244/4/1
f 245/1/1 246/2/1 247/3/1 248/4/1
f 249/1/1 250/2/1 251/3/1 252/4/1
f 253/1/1 254/2/1 255/3/1 256/4/1
f 257/5/1 258/6/1 259/7/1 260/8/1
f 261/1/1 262/2/1 263/3/1 264/4/1
f 265/1/1 266/2/1 267/3/1 268/4/1
f 269/5/1 270/6/1 271/7/1 272/8/1
f 273/1/1 274/2/1 275/3/1 276/4/1
f 277/5/1 278/6/1 279/7/1 280/8/1
f 281/1/1 282/2/1 283/3/1 284/4/1
f 285/1/1 286/2/1 287/3/1 288/4/1
f 289/5/1 290/6/1 291/7/1 292/8/1
f 293/1/1 294/2/1 295/3/1 296/4/1
f 297/1/1 298/2/1 299/3/1 300/4/1
f 301/1/1 302/2/1 303/3/1 304/4/1
f 305/1/1 306/2/1 307/3/1 308/4/1
f 309/5/1 310/6/1 311/7/1 312/8/1
f 313/5/1 314/6/1 315/7/1 316/8/1
f 317/1/1 318/2/1 319/3/1 320/4/1
f 321/1/1 322/2/1 323/3/1 324/4/1
f 325/1/1 326/2/1 327/3/1 328/4/1
f 329/5/1 330/6/1 331/7/1 332/8/1
f 333/5/1 334/6/1 335/7/1 336/8/1
f 337/1/1 338/2/1 339/3/1 340/4/1
f 341/1/1 342/2/1 343/3/1 344/4/1
f 345/1/1 346/2/1 347/3/1 348/4/1
f 349/1/1 350/2/1 351/3/1 352/4/1
f 353/5/1 354/6/1 355/7/1 356/8/1
f 357/1/1 358/2/1 359/3/1 360/4/1
f 361/5/1 362/6/1 363/7/1 364/8/1
f 365/5/1 366/6/1 367/7/1 368/8/1
f 369/5/1 370/6/1 371/7/1 372/8/1
f 373/5/1 374/6/1 375/7/1 376/8/1
f 377/1/1 378/2/1 379/3/1 380/4/1
f 381/1/1 382/2/1 383/3/1 384/4/1
f 385/1/1 386/2/1 387/3/1 388/4/1
f 389/5/1 390/6/1 391/7/1 392/8/1
f 393/5/1 394/6/1 395/7/1 396/8/1
f 397/5/1 398/6/1 399/7/1 400/8/1
f 401/5/1 402/6/1 403/7/1 404/8/1
f 405/1/1 406/2/1 407/3/1 408/4/1
f 409/1/1 410/2/1 411/3/1 412/4/1
f 413/5/1 414/6/1 415/7/1 416/8/1
f 417/1/1 418/2/1 419/3/1 420/4/1
f 421/5/1 422/6/1 423/7/1 424/8/1
f 425/1/1 426/2/1 427/3/1 428/4/1
f 429/1/1 430/2/1 431/3/1 432/4/1
f 433/1/1 434/2/1 435/3/1 436/4/1
f 437/1/1 438/2/1 439/3/1 440/4/1
f 441/1/1 442/2/1 443/3/1 444/4/1
f 445/5/1 446/6/1 447/7/1 448/8/1
f 449/1/1 450/2/1 451/3/1 452/4/1
f 453/5/1 454/6/1 455/7/1 456/8/1
f 457/5/1 458/6/1 459/7/1 460/8/1
f 461/5/1 462/6/1 463/7/1 464/8/1
f 465/1/1 466/2/1 467/3/1 468/4/1
f 469/1/1 470/2/1 471/3/1 472/4/1
f 473/1/1 474/2/1 475/3/1 476/4/1
f 477/5/1 478/6/1 479/7/1 480/8/1
f 481/5/1 482/6/1 483/7/1 484/8/1
f 485/5/1 486/6/1 487/7/1 488/8/1
f 489/1/1 490/2/1 491/3/1 492/4/1
f 493/1/1 494/2/1 495/3/1 496/4/1
f 497/1/1 498/2/1 499/3/1 500/4/1
f 501/1/1 502/2/1 503/3/1 504/4/1
f 505/5/1 506/6/1 507/7/1 508/8/1
f 509/1/1 510/2/1 511/3/1 512/4/1
f 513/5/1 514/6/1 515/7/1 516/8/1
f 517/1/1 518/2/1 519/3/1 520/4/1
f 521/1/1 522/2/1 523/3/1 524/4/1
f 525/1/1 526/2/1 527/3/1 528/4/1
f 529/5/1 530/6/1 531/7/1 532/8/1
f 533/1/1 534/2/1 535/3/1 536/4/1
f 537/1/1 538/2/1 539/3/1 540/4/1
f 541/1/1 542/2/1 543/3/1 544/4/1
f 545/5/1 546/6/1 547/7/1 548/8/1
f 549/5/1 550/6/1 551/7/1 552/8/1
f 553/1/1 554/2/1 555/3/1 556/4/1
f 557/1/1 558/2/1 559/3/1 560/4/1
f 561/5/1 562/6/1 563/7/1 564/8/1
f 565/5/1 566/6/1 567/7/1 568/8/1
f 569/1/1 570/2/1 571/3/1 572/4/1
f 573/5/1 574/6/1 575/7/1 576/8/1

