# Tiled2Unity generated file. Do not modify by hand.
# Wavefront file for 'Base_Map_mesh_0002.obj'

# Vertices (Count = 344)
v -336 -16 0
v -352 -16 0
v -352 0 0
v -336 0 0
v -304 -16 0
v -320 -16 0
v -320 0 0
v -304 0 0
v -48 -16 0
v -64 -16 0
v -64 0 0
v -48 0 0
v -16 -16 0
v -32 -16 0
v -32 0 0
v -16 0 0
v -288 -32 0
v -304 -32 0
v -304 -16 0
v -288 -16 0
v -64 -32 0
v -80 -32 0
v -80 -16 0
v -64 -16 0
v -368 -48 0
v -384 -48 0
v -384 -32 0
v -368 -32 0
v -320 -48 0
v -336 -48 0
v -336 -32 0
v -320 -32 0
v -32 -48 0
v -48 -48 0
v -48 -32 0
v -32 -32 0
v -352 -64 0
v -368 -64 0
v -368 -48 0
v -352 -48 0
v -336 -64 0
v -352 -64 0
v -352 -48 0
v -336 -48 0
v -320 -64 0
v -336 -64 0
v -336 -48 0
v -320 -48 0
v -304 -64 0
v -320 -64 0
v -320 -48 0
v -304 -48 0
v -288 -64 0
v -304 -64 0
v -304 -48 0
v -288 -48 0
v -80 -64 0
v -96 -64 0
v -96 -48 0
v -80 -48 0
v -64 -64 0
v -80 -64 0
v -80 -48 0
v -64 -48 0
v -48 -64 0
v -64 -64 0
v -64 -48 0
v -48 -48 0
v -32 -64 0
v -48 -64 0
v -48 -48 0
v -32 -48 0
v -16 -64 0
v -32 -64 0
v -32 -48 0
v -16 -48 0
v 0 -64 0
v -16 -64 0
v -16 -48 0
v 0 -48 0
v -352 -80 0
v -368 -80 0
v -368 -64 0
v -352 -64 0
v -336 -80 0
v -352 -80 0
v -352 -64 0
v -336 -64 0
v -320 -80 0
v -336 -80 0
v -336 -64 0
v -320 -64 0
v -304 -80 0
v -320 -80 0
v -320 -64 0
v -304 -64 0
v -272 -80 0
v -288 -80 0
v -288 -64 0
v -272 -64 0
v -256 -80 0
v -272 -80 0
v -272 -64 0
v -256 -64 0
v -240 -80 0
v -256 -80 0
v -256 -64 0
v -240 -64 0
v -224 -80 0
v -240 -80 0
v -240 -64 0
v -224 -64 0
v -208 -80 0
v -224 -80 0
v -224 -64 0
v -208 -64 0
v -192 -80 0
v -208 -80 0
v -208 -64 0
v -192 -64 0
v -176 -80 0
v -192 -80 0
v -192 -64 0
v -176 -64 0
v -160 -80 0
v -176 -80 0
v -176 -64 0
v -160 -64 0
v -144 -80 0
v -160 -80 0
v -160 -64 0
v -144 -64 0
v -128 -80 0
v -144 -80 0
v -144 -64 0
v -128 -64 0
v -112 -80 0
v -128 -80 0
v -128 -64 0
v -112 -64 0
v -96 -80 0
v -112 -80 0
v -112 -64 0
v -96 -64 0
v -64 -80 0
v -80 -80 0
v -80 -64 0
v -64 -64 0
v -48 -80 0
v -64 -80 0
v -64 -64 0
v -48 -64 0
v -32 -80 0
v -48 -80 0
v -48 -64 0
v -32 -64 0
v -16 -80 0
v -32 -80 0
v -32 -64 0
v -16 -64 0
v -368 -96 0
v -384 -96 0
v -384 -80 0
v -368 -80 0
v -352 -96 0
v -368 -96 0
v -368 -80 0
v -352 -80 0
v -336 -96 0
v -352 -96 0
v -352 -80 0
v -336 -80 0
v -320 -96 0
v -336 -96 0
v -336 -80 0
v -320 -80 0
v -304 -96 0
v -320 -96 0
v -320 -80 0
v -304 -80 0
v -272 -96 0
v -288 -96 0
v -288 -80 0
v -272 -80 0
v -256 -96 0
v -272 -96 0
v -272 -80 0
v -256 -80 0
v -240 -96 0
v -256 -96 0
v -256 -80 0
v -240 -80 0
v -224 -96 0
v -240 -96 0
v -240 -80 0
v -224 -80 0
v -208 -96 0
v -224 -96 0
v -224 -80 0
v -208 -80 0
v -192 -96 0
v -208 -96 0
v -208 -80 0
v -192 -80 0
v -176 -96 0
v -192 -96 0
v -192 -80 0
v -176 -80 0
v -160 -96 0
v -176 -96 0
v -176 -80 0
v -160 -80 0
v -144 -96 0
v -160 -96 0
v -160 -80 0
v -144 -80 0
v -128 -96 0
v -144 -96 0
v -144 -80 0
v -128 -80 0
v -112 -96 0
v -128 -96 0
v -128 -80 0
v -112 -80 0
v -96 -96 0
v -112 -96 0
v -112 -80 0
v -96 -80 0
v -80 -96 0
v -96 -96 0
v -96 -80 0
v -80 -80 0
v -64 -96 0
v -80 -96 0
v -80 -80 0
v -64 -80 0
v -48 -96 0
v -64 -96 0
v -64 -80 0
v -48 -80 0
v -32 -96 0
v -48 -96 0
v -48 -80 0
v -32 -80 0
v -16 -96 0
v -32 -96 0
v -32 -80 0
v -16 -80 0
v 0 -96 0
v -16 -96 0
v -16 -80 0
v 0 -80 0
v -368 -112 0
v -384 -112 0
v -384 -96 0
v -368 -96 0
v -352 -112 0
v -368 -112 0
v -368 -96 0
v -352 -96 0
v -336 -112 0
v -352 -112 0
v -352 -96 0
v -336 -96 0
v -320 -112 0
v -336 -112 0
v -336 -96 0
v -320 -96 0
v -304 -112 0
v -320 -112 0
v -320 -96 0
v -304 -96 0
v -272 -112 0
v -288 -112 0
v -288 -96 0
v -272 -96 0
v -256 -112 0
v -272 -112 0
v -272 -96 0
v -256 -96 0
v -240 -112 0
v -256 -112 0
v -256 -96 0
v -240 -96 0
v -224 -112 0
v -240 -112 0
v -240 -96 0
v -224 -96 0
v -208 -112 0
v -224 -112 0
v -224 -96 0
v -208 -96 0
v -192 -112 0
v -208 -112 0
v -208 -96 0
v -192 -96 0
v -176 -112 0
v -192 -112 0
v -192 -96 0
v -176 -96 0
v -160 -112 0
v -176 -112 0
v -176 -96 0
v -160 -96 0
v -144 -112 0
v -160 -112 0
v -160 -96 0
v -144 -96 0
v -128 -112 0
v -144 -112 0
v -144 -96 0
v -128 -96 0
v -112 -112 0
v -128 -112 0
v -128 -96 0
v -112 -96 0
v -96 -112 0
v -112 -112 0
v -112 -96 0
v -96 -96 0
v -80 -112 0
v -96 -112 0
v -96 -96 0
v -80 -96 0
v -64 -112 0
v -80 -112 0
v -80 -96 0
v -64 -96 0
v -48 -112 0
v -64 -112 0
v -64 -96 0
v -48 -96 0
v -32 -112 0
v -48 -112 0
v -48 -96 0
v -32 -96 0
v -16 -112 0
v -32 -112 0
v -32 -96 0
v -16 -96 0
v 0 -112 0
v -16 -112 0
v -16 -96 0
v 0 -96 0

# Texture cooridinates (Count = 80)
vt 0.5092975 0.6787072
vt 0.5258265 0.6787072
vt 0.5258265 0.7091255
vt 0.5092975 0.7091255
vt 0.5268595 0.6787072
vt 0.5433884 0.6787072
vt 0.5433884 0.7091255
vt 0.5268595 0.7091255
vt 0.4917355 0.6787072
vt 0.5082645 0.6787072
vt 0.5082645 0.7091255
vt 0.4917355 0.7091255
vt 0.07024793 0.9695817
vt 0.08677686 0.9695817
vt 0.08677686 1
vt 0.07024793 1
vt 0.05268595 0.9695817
vt 0.06921487 0.9695817
vt 0.06921487 1
vt 0.05268595 1
vt 0.03512397 0.9695817
vt 0.05165289 0.9695817
vt 0.05165289 1
vt 0.03512397 1
vt 0.07024793 0.9372624
vt 0.08677686 0.9372624
vt 0.08677686 0.9676806
vt 0.07024793 0.9676806
vt 0.05268595 0.9372624
vt 0.06921487 0.9372624
vt 0.06921487 0.9676806
vt 0.05268595 0.9676806
vt 0.03512397 0.9372624
vt 0.05165289 0.9372624
vt 0.05165289 0.9676806
vt 0.03512397 0.9676806
vt 0.3336777 0.2908745
vt 0.3502066 0.2908745
vt 0.3502066 0.3212928
vt 0.3336777 0.3212928
vt 0.3161157 0.2585551
vt 0.3326446 0.2585551
vt 0.3326446 0.2889734
vt 0.3161157 0.2889734
vt 0.2985537 0.2908745
vt 0.3150826 0.2908745
vt 0.3150826 0.3212928
vt 0.2985537 0.3212928
vt 0.2809917 0.6463878
vt 0.2975207 0.6463878
vt 0.2975207 0.6768061
vt 0.2809917 0.6768061
vt 0.2809917 0.6140684
vt 0.2975207 0.6140684
vt 0.2975207 0.6444867
vt 0.2809917 0.6444867
vt 0.07024793 0.904943
vt 0.08677686 0.904943
vt 0.08677686 0.9353612
vt 0.07024793 0.9353612
vt 0.05268595 0.904943
vt 0.06921487 0.904943
vt 0.06921487 0.9353612
vt 0.05268595 0.9353612
vt 0.03512397 0.904943
vt 0.05165289 0.904943
vt 0.05165289 0.9353612
vt 0.03512397 0.9353612
vt 0.3336777 0.2262357
vt 0.3502066 0.2262357
vt 0.3502066 0.256654
vt 0.3336777 0.256654
vt 0.3161157 0.2262357
vt 0.3326446 0.2262357
vt 0.3326446 0.256654
vt 0.3161157 0.256654
vt 0.2985537 0.2262357
vt 0.3150826 0.2262357
vt 0.3150826 0.256654
vt 0.2985537 0.256654

# Normal
vn 0 0 -1

# Mesh description
g Base_Map_mesh_0002

# Faces
f 1/1/1 2/2/1 3/3/1 4/4/1
f 5/5/1 6/6/1 7/7/1 8/8/1
f 9/5/1 10/6/1 11/7/1 12/8/1
f 13/1/1 14/2/1 15/3/1 16/4/1
f 17/9/1 18/10/1 19/11/1 20/12/1
f 21/9/1 22/10/1 23/11/1 24/12/1
f 25/5/1 26/6/1 27/7/1 28/8/1
f 29/9/1 30/10/1 31/11/1 32/12/1
f 33/5/1 34/6/1 35/7/1 36/8/1
f 37/13/1 38/14/1 39/15/1 40/16/1
f 41/17/1 42/18/1 43/19/1 44/20/1
f 45/17/1 46/18/1 47/19/1 48/20/1
f 49/21/1 50/22/1 51/23/1 52/24/1
f 53/1/1 54/2/1 55/3/1 56/4/1
f 57/1/1 58/2/1 59/3/1 60/4/1
f 61/13/1 62/14/1 63/15/1 64/16/1
f 65/17/1 66/18/1 67/19/1 68/20/1
f 69/17/1 70/18/1 71/19/1 72/20/1
f 73/21/1 74/22/1 75/23/1 76/24/1
f 77/9/1 78/10/1 79/11/1 80/12/1
f 81/25/1 82/26/1 83/27/1 84/28/1
f 85/29/1 86/30/1 87/31/1 88/32/1
f 89/29/1 90/30/1 91/31/1 92/32/1
f 93/33/1 94/34/1 95/35/1 96/36/1
f 97/37/1 98/38/1 99/39/1 100/40/1
f 101/41/1 102/42/1 103/43/1 104/44/1
f 105/41/1 106/42/1 107/43/1 108/44/1
f 109/41/1 110/42/1 111/43/1 112/44/1
f 113/41/1 114/42/1 115/43/1 116/44/1
f 117/41/1 118/42/1 119/43/1 120/44/1
f 121/41/1 122/42/1 123/43/1 124/44/1
f 125/41/1 126/42/1 127/43/1 128/44/1
f 129/41/1 130/42/1 131/43/1 132/44/1
f 133/41/1 134/42/1 135/43/1 136/44/1
f 137/41/1 138/42/1 139/43/1 140/44/1
f 141/45/1 142/46/1 143/47/1 144/48/1
f 145/25/1 146/26/1 147/27/1 148/28/1
f 149/29/1 150/30/1 151/31/1 152/32/1
f 153/29/1 154/30/1 155/31/1 156/32/1
f 157/33/1 158/34/1 159/35/1 160/36/1
f 161/49/1 162/50/1 163/51/1 164/52/1
f 165/25/1 166/26/1 167/27/1 168/28/1
f 169/29/1 170/30/1 171/31/1 172/32/1
f 173/29/1 174/30/1 175/31/1 176/32/1
f 177/33/1 178/34/1 179/35/1 180/36/1
f 181/37/1 182/38/1 183/39/1 184/40/1
f 185/41/1 186/42/1 187/43/1 188/44/1
f 189/41/1 190/42/1 191/43/1 192/44/1
f 193/41/1 194/42/1 195/43/1 196/44/1
f 197/41/1 198/42/1 199/43/1 200/44/1
f 201/41/1 202/42/1 203/43/1 204/44/1
f 205/41/1 206/42/1 207/43/1 208/44/1
f 209/41/1 210/42/1 211/43/1 212/44/1
f 213/41/1 214/42/1 215/43/1 216/44/1
f 217/41/1 218/42/1 219/43/1 220/44/1
f 221/41/1 222/42/1 223/43/1 224/44/1
f 225/45/1 226/46/1 227/47/1 228/48/1
f 229/49/1 230/50/1 231/51/1 232/52/1
f 233/25/1 234/26/1 235/27/1 236/28/1
f 237/29/1 238/30/1 239/31/1 240/32/1
f 241/29/1 242/30/1 243/31/1 244/32/1
f 245/33/1 246/34/1 247/35/1 248/36/1
f 249/49/1 250/50/1 251/51/1 252/52/1
f 253/53/1 254/54/1 255/55/1 256/56/1
f 257/57/1 258/58/1 259/59/1 260/60/1
f 261/61/1 262/62/1 263/63/1 264/64/1
f 265/61/1 266/62/1 267/63/1 268/64/1
f 269/65/1 270/66/1 271/67/1 272/68/1
f 273/69/1 274/70/1 275/71/1 276/72/1
f 277/73/1 278/74/1 279/75/1 280/76/1
f 281/73/1 282/74/1 283/75/1 284/76/1
f 285/73/1 286/74/1 287/75/1 288/76/1
f 289/73/1 290/74/1 291/75/1 292/76/1
f 293/73/1 294/74/1 295/75/1 296/76/1
f 297/73/1 298/74/1 299/75/1 300/76/1
f 301/73/1 302/74/1 303/75/1 304/76/1
f 305/73/1 306/74/1 307/75/1 308/76/1
f 309/73/1 310/74/1 311/75/1 312/76/1
f 313/73/1 314/74/1 315/75/1 316/76/1
f 317/77/1 318/78/1 319/79/1 320/80/1
f 321/53/1 322/54/1 323/55/1 324/56/1
f 325/57/1 326/58/1 327/59/1 328/60/1
f 329/61/1 330/62/1 331/63/1 332/64/1
f 333/61/1 334/62/1 335/63/1 336/64/1
f 337/65/1 338/66/1 339/67/1 340/68/1
f 341/53/1 342/54/1 343/55/1 344/56/1

